<?xml version="1.0" standalone="no"?><!DOCTYPE svg PUBLIC "-//W3C//DTD SVG 1.1//EN" "http://www.w3.org/Graphics/SVG/1.1/DTD/svg11.dtd"><svg t="1505367998251" class="icon" style="" viewBox="0 0 1024 1024" version="1.1" xmlns="http://www.w3.org/2000/svg" p-id="7349" xmlns:xlink="http://www.w3.org/1999/xlink" width="200" height="200"><defs><style type="text/css"></style></defs><path d="M676.864 747.33056c-49.98656 35.072-108.544 52.53632-168.32 51.84-7.936-0.13312-15.744-0.70656-23.552-1.28-3.13856-0.32256-6.33856-0.83968-9.472-1.28-6.20544-0.768-12.16-1.54112-18.176-2.75968-3.65056-0.64-7.35744-1.664-10.88-2.49344-5.888-1.28-11.648-2.56-17.408-4.224-2.688-1.024-5.30944-1.85344-8.00256-2.944-6.656-2.048-13.17888-4.41856-19.51744-7.04-1.408-0.64-2.816-1.152-4.29056-1.72544a467.84 467.84 0 0 1-21.888-10.624c-0.256-0.18944-0.64-0.32256-0.89088-0.512-24.13056-13.312-46.08-29.568-65.41312-49.09056-0.31744-0.31744-0.57344-0.70656-0.95744-1.024a241.21344 241.21344 0 0 1-17.152-18.88256c-1.09056-1.34144-2.176-2.68288-3.328-4.352-39.22944-49.152-62.90944-111.36-62.90944-178.944h75.70944L179.26656 330.37312l-120.96 181.504H133.888c0 79.488 24.89344 153.216 67.00544 214.272 0.512 0.896 0.83456 1.85344 1.408 2.62656 4.352 6.33344 9.216 12.032 13.89056 17.85344 1.792 2.10944 3.328 4.28544 5.248 6.71744 6.84544 8.25856 14.26944 16.128 21.76 23.86944 0.768 0.768 1.40288 1.41312 2.048 2.11456 25.344 25.40544 53.88288 46.65856 85.05344 63.80544l2.49344 1.34656a373.6576 373.6576 0 0 0 27.45856 13.37344c2.37056 1.024 4.608 2.048 6.912 3.01056 8.064 3.38944 16.256 6.272 24.50944 9.088 3.90656 1.34144 7.74656 2.62144 11.71456 3.90144 7.22944 2.048 14.592 3.90656 22.016 5.63712 4.992 1.152 9.728 2.432 14.848 3.328 2.048 0.512 3.968 1.152 6.07744 1.34144 7.10656 1.28 14.14656 1.92 21.05856 2.74944 2.56 0.45056 5.12 0.90112 7.61344 1.15712 12.60544 1.21344 25.216 1.98656 37.76 1.98656 76.8 0 151.808-23.49056 216.192-68.608 20.48-14.40256 25.53344-42.752 11.20256-63.10912-14.592-20.54656-42.81344-25.53344-63.29344-11.008m213.12-235.45344c0-79.29856-24.576-152.96-66.49856-213.69856-0.64-1.024-1.024-2.10944-1.536-3.00544a435.64032 435.64032 0 0 0-16.70144-21.44256 26.8544 26.8544 0 0 1-1.85856-2.56c-38.528-46.39744-86.72256-82.432-141.184-105.984-1.59744-0.63488-2.944-1.34144-4.54144-1.98144-8.77056-3.584-17.664-6.72256-26.75712-9.79456-3.072-1.024-6.4-2.17088-9.6-3.13344-7.936-2.49856-15.73888-4.48-23.74144-6.33856-4.41856-0.95744-8.96-2.10944-13.37856-3.00544-2.23744-0.37888-4.21888-1.024-6.58944-1.47456-5.94944-0.95744-11.83744-1.536-17.85344-2.23744-4.16256-0.512-8.13056-1.152-12.35456-1.60256-10.04544-0.95744-20.02944-1.34144-30.01856-1.536-1.792 0-3.584-0.256-5.43744-0.256a4.864 4.864 0 0 0-0.96256 0.13312C434.23744 134.016 359.35744 157.184 295.10144 202.24c-20.48 14.336-25.53344 42.624-11.06944 63.232 14.26944 20.41344 42.68544 25.472 63.232 11.008 49.59744-34.688 107.45344-52.352 166.84544-51.77344 8.51456 0.06144 17.024 0.44544 25.27744 1.28 2.56 0.18944 5.05856 0.57344 7.61856 0.95744 6.84544 0.896 13.63456 1.792 20.28544 3.2 2.88256 0.512 5.888 1.28 8.64256 1.92 6.656 1.46944 13.056 3.00544 19.456 4.992 2.11456 0.57344 4.03456 1.28 6.016 2.048 7.424 2.36544 14.65856 4.92544 21.56544 7.86944 0.768 0.19456 1.47456 0.768 2.176 1.024A288.00512 288.00512 0 0 1 733.568 329.216a1.49504 1.49504 0 0 0 0.44544 0.57344c40.77056 49.664 65.21344 113.024 65.28 182.08256h-75.776l121.216 181.56544 120.89344-181.56544h-75.64288z" fill="#ffffff" p-id="7350"></path></svg>