<?xml version="1.0" standalone="no"?><!DOCTYPE svg PUBLIC "-//W3C//DTD SVG 1.1//EN" "http://www.w3.org/Graphics/SVG/1.1/DTD/svg11.dtd"><svg t="1505359110077" class="icon" style="" viewBox="0 0 1024 1024" version="1.1" xmlns="http://www.w3.org/2000/svg" p-id="38665" xmlns:xlink="http://www.w3.org/1999/xlink" width="200" height="200"><defs><style type="text/css"></style></defs><path d="M574.284536 42.226804l0 171.018557-306.14433 0-24.280412 0 0 24.280412 0 274.474227L0 512l0 362.094845 230.136082 0 0 64.395876-96.065979 0L109.789691 938.490722l0 48.560825 24.280412 0 268.140206 0 24.280412 0 0-48.560825-24.280412 0-103.45567 0 0-64.395876 223.802062 0L522.556701 512 292.420619 512 292.420619 262.861856l281.863918 0 0 141.459794 212.189691 0 0 64.395876L675.628866 468.717526l-4.22268 0L671.406186 517.278351 675.628866 517.278351l245.971134 0 12.668041 0 0-48.560825-12.668041 0-96.065979 0 0-64.395876L1024 404.321649 1024 42.226804 574.284536 42.226804zM473.995876 824.478351 48.560825 824.478351l0-263.917526 425.435052 0L473.995876 824.478351zM975.439175 354.705155 623.901031 354.705155l0-263.917526 351.538144 0L975.439175 354.705155z" p-id="38666" fill="#bfbfbf"></path></svg>