<?xml version="1.0" standalone="no"?><!DOCTYPE svg PUBLIC "-//W3C//DTD SVG 1.1//EN" "http://www.w3.org/Graphics/SVG/1.1/DTD/svg11.dtd"><svg t="1505283367423" class="icon" style="" viewBox="0 0 1024 1024" version="1.1" xmlns="http://www.w3.org/2000/svg" p-id="5132" xmlns:xlink="http://www.w3.org/1999/xlink" width="200" height="200"><defs><style type="text/css"></style></defs><path d="M512 0C230.4 0 0 230.4 0 512s230.4 512 512 512c281.6 0 512-230.4 512-512S793.6 0 512 0zM512 979.2C256 979.2 44.8 768 44.8 512S256 44.8 512 44.8 979.2 256 979.2 512 768 979.2 512 979.2z" p-id="5133"></path><path d="M256 512m-64 0a1 1 0 1 0 128 0 1 1 0 1 0-128 0Z" p-id="5134"></path><path d="M499.2 512m-64 0a1 1 0 1 0 128 0 1 1 0 1 0-128 0Z" p-id="5135"></path><path d="M768 512m-64 0a1 1 0 1 0 128 0 1 1 0 1 0-128 0Z" p-id="5136"></path></svg>