<?xml version="1.0" standalone="no"?><!DOCTYPE svg PUBLIC "-//W3C//DTD SVG 1.1//EN" "http://www.w3.org/Graphics/SVG/1.1/DTD/svg11.dtd"><svg t="1585030459031" class="icon" viewBox="0 0 1024 1024" version="1.1" xmlns="http://www.w3.org/2000/svg" p-id="1259" xmlns:xlink="http://www.w3.org/1999/xlink" width="200" height="200"><defs><style type="text/css"></style></defs><path d="M971.56 373.96c-70.863 0-128.286-57.772-128.286-128.984 0-22.69 6.021-45.118 17.192-64.754a20.072 20.072 0 0 0-7.418-27.315l-202.726-117.9a19.897 19.897 0 0 0-27.316 7.417 128.286 128.286 0 0 1-111.18 64.58c-48.784 0-92.768-32.552-111.094-64.58a19.636 19.636 0 0 0-27.054-7.418l-202.9 117.901a20.16 20.16 0 0 0-7.418 27.315 129.682 129.682 0 0 1-46.69 176.459 126.628 126.628 0 0 1-64.142 17.192 20.072 20.072 0 0 0-19.897 20.071v235.889c0 11.083 8.901 20.072 19.897 20.072 70.862 0 128.286 57.772 128.286 129.158 0 22.69-6.022 45.031-17.105 64.58a20.072 20.072 0 0 0 7.33 27.402l202.814 117.9c9.6 5.673 21.643 2.182 27.228-7.417a127.85 127.85 0 0 1 222.274 0 20.072 20.072 0 0 0 27.316 7.418l202.813-117.901a20.072 20.072 0 0 0 7.33-27.315 129.682 129.682 0 0 1 46.864-176.546c19.461-11.432 41.628-17.454 64.318-17.28a20.072 20.072 0 0 0 19.897-20.071V394.206a20.683 20.683 0 0 0-20.334-20.072zM512.086 678.53a165.986 165.986 0 0 1-165.375-166.51c0-91.895 74.179-166.51 165.375-166.51s165.288 74.615 165.288 166.51-74.179 166.335-165.288 166.51z" p-id="1260" fill="#ffffff"></path></svg>