<?xml version="1.0" standalone="no"?><!DOCTYPE svg PUBLIC "-//W3C//DTD SVG 1.1//EN" "http://www.w3.org/Graphics/SVG/1.1/DTD/svg11.dtd"><svg t="1513133029002" class="icon" style="" viewBox="0 0 1024 1024" version="1.1" xmlns="http://www.w3.org/2000/svg" p-id="19541" xmlns:xlink="http://www.w3.org/1999/xlink" width="200" height="200"><defs><style type="text/css"></style></defs><path d="M928.229 512c0 17.51-14.508 32.018-32.018 32.018l-32.018 0c-17.51 0-32.018-14.508-32.018-32.018L832.175 383.93c0-70.539-57.531-128.07-128.07-128.07s-128.07 57.532-128.07 128.07l0 96.053 48.026 0c26.515 0 48.026 21.512 48.026 48.026l0 288.158c0 26.515-21.512 48.026-48.026 48.026L143.798 864.193c-26.515 0-48.026-21.512-48.026-48.026L95.772 528.009c0-26.515 21.512-48.026 48.026-48.026l336.185 0L479.983 383.93c0-123.568 100.556-224.123 224.123-224.123 123.568 0 224.123 100.555 224.123 224.123L928.229 512z" p-id="19542" fill="#ffffff"></path></svg>