<?xml version="1.0" standalone="no"?><!DOCTYPE svg PUBLIC "-//W3C//DTD SVG 1.1//EN" "http://www.w3.org/Graphics/SVG/1.1/DTD/svg11.dtd"><svg t="1513131192485" class="icon" style="" viewBox="0 0 1024 1024" version="1.1" xmlns="http://www.w3.org/2000/svg" p-id="5951" xmlns:xlink="http://www.w3.org/1999/xlink" width="200" height="200"><defs><style type="text/css"></style></defs><path d="M430 483.9c0.6 0 1.2-0.1 1.8-0.3 0.4 0 0.8-0.1 1.2-0.1 0.6-0.1 1.3-0.3 1.9-0.3 0.4 0 0.6-0.1 1-0.1 0.6-0.1 1.3-0.3 1.9-0.4 0.3-0.1 0.6-0.1 0.9-0.3 0.6-0.1 1.2-0.3 1.8-0.5 0.4-0.1 0.6-0.1 1-0.3 0.5-0.1 1.2-0.4 1.7-0.5 0.4-0.1 0.8-0.3 1.2-0.4 0.5-0.1 1-0.4 1.6-0.5 0.4-0.1 0.9-0.4 1.3-0.5s0.9-0.4 1.3-0.5c0.5-0.3 0.9-0.4 1.4-0.6 0.4-0.1 0.8-0.4 1-0.5 0.5-0.3 1-0.5 1.6-0.8 0.3-0.1 0.6-0.4 0.9-0.5 0.5-0.3 1-0.6 1.7-0.9 0.3-0.1 0.5-0.4 0.8-0.5 0.5-0.4 1.2-0.6 1.7-1 0.3-0.1 0.5-0.4 0.8-0.5 0.5-0.4 1-0.8 1.6-1.2 0.3-0.3 0.6-0.5 0.9-0.6 0.5-0.4 0.9-0.8 1.4-1 0.4-0.4 0.8-0.6 1.2-1 0.4-0.3 0.6-0.6 1-0.9 1.4-1.3 2.8-2.7 4.3-4.3 0.3-0.4 0.6-0.6 0.9-1 0.4-0.4 0.6-0.8 1-1.2 0.4-0.5 0.8-0.9 1-1.4 0.3-0.3 0.5-0.6 0.6-0.9 0.4-0.5 0.8-1 1.2-1.6 0.1-0.3 0.4-0.5 0.5-0.8 0.4-0.5 0.8-1 1-1.7 0.1-0.3 0.4-0.5 0.5-0.8 0.4-0.5 0.6-1 0.9-1.7 0.1-0.3 0.4-0.6 0.5-0.9 0.3-0.5 0.5-1 0.8-1.6 0.1-0.4 0.4-0.8 0.5-1 0.3-0.5 0.4-0.9 0.6-1.4 0.1-0.4 0.4-0.9 0.5-1.3 0.1-0.4 0.4-0.9 0.5-1.3 0.1-0.5 0.4-1 0.5-1.6 0.1-0.4 0.3-0.8 0.4-1.2 0.1-0.5 0.4-1.2 0.5-1.7 0.1-0.4 0.3-0.6 0.3-1 0.1-0.6 0.4-1.2 0.5-1.8 0.1-0.3 0.1-0.6 0.3-0.9 0.1-0.6 0.3-1.3 0.4-1.9 0-0.4 0.1-0.6 0.1-1 0.1-0.6 0.3-1.3 0.3-1.9 0-0.4 0.1-0.8 0.1-1.2 0.1-0.6 0.1-1.2 0.3-1.8 0-0.5 0.1-1 0.1-1.6 0-0.5 0.1-0.9 0.1-1.4 0-1 0.1-1.9 0.1-3V124.2c0-33.4-27-60.2-60.2-60.2-33.4 0-60.2 27-60.2 60.2v154.1L166.9 81.9c-23.5-23.5-61.7-23.5-85.2 0s-23.5 61.7 0 85.2l196.5 196.5h-154c-33.4 0-60.2 27-60.2 60.2 0 33.4 27 60.2 60.2 60.2h299.6c1 0 1.9 0 3-0.1 0.5 0 0.9-0.1 1.4-0.1 0.7 0.1 1.2 0.1 1.8 0.1zM960 600.3c0-33.4-27-60.3-60.2-60.3H600.2c-1 0-1.9 0-3 0.1-0.5 0-0.9 0.1-1.4 0.1-0.5 0-1 0.1-1.6 0.1s-1.2 0.1-1.8 0.3c-0.4 0-0.8 0.1-1.2 0.1-0.6 0.1-1.3 0.3-1.9 0.3-0.4 0-0.6 0.1-1 0.1-0.6 0.1-1.3 0.3-1.9 0.4-0.3 0.1-0.6 0.1-0.9 0.3-0.6 0.1-1.2 0.3-1.8 0.5-0.4 0.1-0.6 0.1-1 0.3-0.5 0.1-1.2 0.4-1.7 0.5-0.4 0.1-0.8 0.3-1.2 0.4-0.5 0.1-1 0.4-1.6 0.5-0.4 0.1-0.9 0.4-1.3 0.5-0.4 0.1-0.9 0.4-1.3 0.5-0.5 0.3-1 0.4-1.4 0.6-0.4 0.1-0.8 0.4-1 0.5-0.5 0.3-1 0.5-1.6 0.8-0.3 0.1-0.6 0.4-0.9 0.5-0.5 0.3-1.2 0.6-1.7 0.9-0.3 0.1-0.5 0.4-0.8 0.5-0.5 0.4-1.2 0.6-1.7 1-0.3 0.1-0.5 0.4-0.8 0.5-0.5 0.4-1 0.8-1.6 1.2-0.3 0.3-0.6 0.5-0.9 0.6-0.5 0.4-0.9 0.8-1.4 1.2-0.4 0.4-0.8 0.6-1.2 1-0.4 0.3-0.8 0.6-1 0.9-1.4 1.3-2.8 2.7-4.3 4.3-0.3 0.4-0.6 0.8-0.9 1-0.4 0.4-0.6 0.8-1 1.2-0.4 0.5-0.8 0.9-1.2 1.4-0.3 0.3-0.5 0.6-0.6 0.9-0.4 0.5-0.8 1-1.2 1.6-0.1 0.3-0.4 0.5-0.5 0.8-0.4 0.5-0.8 1-1 1.7-0.1 0.3-0.4 0.5-0.5 0.8-0.4 0.5-0.6 1-0.9 1.7-0.1 0.3-0.4 0.6-0.5 0.9-0.3 0.5-0.5 1-0.8 1.6-0.1 0.4-0.4 0.8-0.5 1-0.3 0.5-0.4 0.9-0.6 1.4-0.1 0.4-0.4 0.9-0.5 1.3-0.1 0.4-0.4 0.9-0.5 1.3-0.1 0.5-0.4 1-0.5 1.6-0.1 0.4-0.3 0.8-0.4 1.2-0.1 0.5-0.4 1.2-0.5 1.7-0.1 0.4-0.3 0.6-0.3 1-0.1 0.6-0.4 1.2-0.5 1.8-0.1 0.3-0.1 0.6-0.3 0.9-0.1 0.6-0.3 1.3-0.4 1.9 0 0.4-0.1 0.6-0.1 1-0.1 0.6-0.3 1.3-0.3 1.9 0 0.4-0.1 0.8-0.1 1.2-0.1 0.6-0.1 1.2-0.3 1.8 0 0.5-0.1 1-0.1 1.6 0 0.6-0.1 0.9-0.1 1.4 0 1-0.1 1.9-0.1 3v299.6c0 33.4 27 60.3 60.2 60.3 33.3 0 60.2-27 60.2-60.3V745.9l196 196.1c23.5 23.5 61.6 23.5 85.2 0 23.5-23.5 23.5-61.7 0-85.2l-196-196.1h154.1c33.2 0 60.2-27 60.2-60.4z" fill="#ffffff" p-id="5952"></path></svg>