<?xml version="1.0" standalone="no"?><!DOCTYPE svg PUBLIC "-//W3C//DTD SVG 1.1//EN" "http://www.w3.org/Graphics/SVG/1.1/DTD/svg11.dtd"><svg t="1505368164741" class="icon" style="" viewBox="0 0 1024 1024" version="1.1" xmlns="http://www.w3.org/2000/svg" p-id="10235" xmlns:xlink="http://www.w3.org/1999/xlink" width="200" height="200"><defs><style type="text/css"></style></defs><path d="M594.1 427.1c16.4 16.4 45.1 16.4 61.4 0l157.7-155.6v124.9c0 18.4 14.3 32.8 30.7 32.8h22.5c18.4 0 34.8-12.3 34.8-28.7V156.8c0-8.2-2-16.4-8.2-22.5-6.1-6.1-14.3-10.2-24.6-10.2H624.8c-18.4 0-32.8 14.3-32.8 32.8v22.5c2 20.5 18.4 32.8 36.9 32.8h120.8L594.1 365.7c-16.4 18.4-16.4 45 0 61.4m-165.9 172c-16.4-16.4-45.1-16.4-61.4 0L209.1 752.7V629.9c0-18.4-14.3-34.8-30.7-34.8h-22.5c-18.4 0-34.8 14.3-34.8 30.7V869.5c0 8.2 2 16.4 8.2 22.5 4.1 6.1 12.3 10.2 22.5 10.2H395.5c18.4 0 32.8-14.3 32.8-32.8v-22.5c0-20.5-18.4-30.7-36.9-30.7H270.5l157.7-155.6c16.4-18.5 16.4-45.1 0-61.5m0 0" p-id="10236" fill="#ffffff"></path></svg>