<svg xmlns="http://www.w3.org/2000/svg" width="15" height="17" viewBox="0 0 15 17" fill="none">
  <path d="M11.5533 4.30714C11.3175 4.04714 10.9365 4.04714 10.7007 4.30714L7.74398 7.56047L4.78723 4.30047C4.55142 4.04047 4.17049 4.04047 3.93467 4.30047C3.69886 4.56047 3.69886 4.98047 3.93467 5.24047L6.89142 8.50047L3.93467 11.7605C3.69886 12.0205 3.69886 12.4405 3.93467 12.7005C4.17049 12.9605 4.55142 12.9605 4.78723 12.7005L7.74398 9.44047L10.7007 12.7005C10.9365 12.9605 11.3175 12.9605 11.5533 12.7005C11.7891 12.4405 11.7891 12.0205 11.5533 11.7605L8.59653 8.50047L11.5533 5.24047C11.783 4.98714 11.783 4.56047 11.5533 4.30714Z" fill="#EEEEEE"/>
</svg>