<svg xmlns="http://www.w3.org/2000/svg" width="22" height="22" viewBox="0 0 22 22" fill="none">
  <path d="M14.9375 11C14.9375 9.45125 14.045 8.12125 12.75 7.47375V9.4075L14.8938 11.5513C14.92 11.3763 14.9375 11.1925 14.9375 11ZM17.125 11C17.125 11.8225 16.95 12.5925 16.6525 13.31L17.9737 14.6312C18.5512 13.5462 18.875 12.3125 18.875 11C18.875 7.255 16.2587 4.1225 12.75 3.32625V5.12875C15.2788 5.88125 17.125 8.22625 17.125 11ZM4.23625 3.125L3.125 4.23625L7.26375 8.375H3.125V13.625H6.625L11 18V12.1112L14.7188 15.83C14.1325 16.285 13.4762 16.6438 12.75 16.8625V18.665C13.9575 18.3938 15.0513 17.8338 15.9788 17.0813L17.7638 18.875L18.875 17.7638L11 9.88875L4.23625 3.125ZM11 4L9.17125 5.82875L11 7.6575V4Z" fill="#EEEEEE"/>
</svg>