<svg xmlns="http://www.w3.org/2000/svg" width="15" height="13" viewBox="0 0 15 13" fill="none">
  <path fill-rule="evenodd" clip-rule="evenodd" d="M0.115723 8.27273C0.115723 8.05548 0.202026 7.84713 0.355646 7.69351C0.509266 7.53989 0.71762 7.45358 0.934872 7.45358H10.7647C11.4164 7.45358 12.0415 7.19467 12.5023 6.73381C12.9632 6.27295 13.2221 5.64789 13.2221 4.99614V1.71954C13.2221 1.50229 13.3084 1.29393 13.462 1.14031C13.6157 0.986694 13.824 0.900391 14.0413 0.900391C14.2585 0.900391 14.4669 0.986694 14.6205 1.14031C14.7741 1.29393 14.8604 1.50229 14.8604 1.71954V4.99614C14.8604 6.0824 14.4289 7.12416 13.6608 7.89226C12.8927 8.66037 11.8509 9.09188 10.7647 9.09188H0.934872C0.71762 9.09188 0.509266 9.00558 0.355646 8.85196C0.202026 8.69834 0.115723 8.48998 0.115723 8.27273Z" fill="#DDDDDD"/>
  <path fill-rule="evenodd" clip-rule="evenodd" d="M0.355558 8.85232C0.201992 8.6987 0.115723 8.49039 0.115723 8.27318C0.115723 8.05597 0.201992 7.84765 0.355558 7.69404L3.63215 4.41744C3.78665 4.26823 3.99357 4.18566 4.20834 4.18753C4.42312 4.1894 4.62858 4.27555 4.78045 4.42742C4.93233 4.5793 5.01848 4.78475 5.02034 4.99953C5.02221 5.21431 4.93964 5.42123 4.79043 5.57572L2.09297 8.27318L4.79043 10.9706C4.86867 11.0462 4.93107 11.1366 4.974 11.2365C5.01693 11.3365 5.03953 11.444 5.04048 11.5527C5.04142 11.6615 5.0207 11.7694 4.97951 11.87C4.93832 11.9707 4.8775 12.0622 4.80058 12.1391C4.72367 12.216 4.63221 12.2768 4.53154 12.318C4.43087 12.3592 4.32301 12.3799 4.21424 12.379C4.10547 12.378 3.99799 12.3554 3.89805 12.3125C3.79811 12.2696 3.70772 12.2072 3.63215 12.1289L0.355558 8.85232Z" fill="#DDDDDD"/>
</svg>